{
  "accessors": [
    {
      "bufferView": 2,
      "componentType": 5126,
      "count": 1261,
      "max": [
        86.332199096679688,
        16.350799560546875,
        147.03860473632812
      ],
      "min": [
        -112.59919738769531,
        -174.87179565429688,
        -76.067802429199219
      ],
      "type": "VEC3"
    },
    {
      "bufferView": 2,
      "byteOffset": 15132,
      "componentType": 5126,
      "count": 1261,
      "max": [
        0.99917876720428467,
        0.99917316436767578,
        0.99978035688400269
      ],
      "min": [
        -0.99835306406021118,
        -0.99841523170471191,
        -0.99748152494430542
      ],
      "type": "VEC3"
    },
    {
      "bufferView": 3,
      "componentType": 5126,
      "count": 1261,
      "max": [
        0.99446392059326172,
        0.99194258451461792,
        0.99789124727249146,
        1
      ],
      "min": [
        -0.99986743927001953,
        -0.99591434001922607,
        -0.99654847383499146,
        1
      ],
      "type": "VEC4"
    },
    {
      "bufferView": 1,
      "componentType": 5126,
      "count": 1261,
      "max": [
        0.98489999771118164,
        0.99500000476837158
      ],
      "min": [
        0.0099999997764825821,
        0.0099999997764825821
      ],
      "type": "VEC2"
    },
    {
      "bufferView": 0,
      "componentType": 5125,
      "count": 3918,
      "max": [
        1260
      ],
      "min": [
        0
      ],
      "type": "SCALAR"
    },
    {
      "bufferView": 2,
      "byteOffset": 30264,
      "componentType": 5126,
      "count": 897,
      "max": [
        122.00810241699219,
        -57.068199157714844,
        180.50630187988281
      ],
      "min": [
        -163.93539428710938,
        -208.30349731445312,
        -75.449996948242188
      ],
      "type": "VEC3"
    },
    {
      "bufferView": 2,
      "byteOffset": 41028,
      "componentType": 5126,
      "count": 897,
      "max": [
        0.99951589107513428,
        0.99119633436203003,
        0.99573248624801636
      ],
      "min": [
        -0.99951571226119995,
        -0.99654072523117065,
        -0.99288380146026611
      ],
      "type": "VEC3"
    },
    {
      "bufferView": 3,
      "byteOffset": 20176,
      "componentType": 5126,
      "count": 897,
      "max": [
        0.99883478879928589,
        0.9960290789604187,
        0.99750179052352905,
        1
      ],
      "min": [
        -0.9984326958656311,
        -0.98749357461929321,
        -0.99408024549484253,
        -1
      ],
      "type": "VEC4"
    },
    {
      "bufferView": 1,
      "byteOffset": 10088,
      "componentType": 5126,
      "count": 897,
      "max": [
        0.98949998617172241,
        0.99210000038146973
      ],
      "min": [
        0.0078999996185302734,
        0.010599999688565731
      ],
      "type": "VEC2"
    },
    {
      "bufferView": 0,
      "byteOffset": 15672,
      "componentType": 5125,
      "count": 2748,
      "max": [
        896
      ],
      "min": [
        0
      ],
      "type": "SCALAR"
    },
    {
      "bufferView": 2,
      "byteOffset": 51792,
      "componentType": 5126,
      "count": 230,
      "max": [
        179.97669982910156,
        99.421897888183594,
        207.96490478515625
      ],
      "min": [
        -178.40049743652344,
        -249.55239868164062,
        -86.223098754882812
      ],
      "type": "VEC3"
    },
    {
      "bufferView": 2,
      "byteOffset": 54552,
      "componentType": 5126,
      "count": 230,
      "max": [
        0.9907989501953125,
        0.99525159597396851,
        1
      ],
      "min": [
        -0.99378758668899536,
        -0.99900805950164795,
        -0.99771887063980103
      ],
      "type": "VEC3"
    },
    {
      "bufferView": 3,
      "byteOffset": 34528,
      "componentType": 5126,
      "count": 230,
      "max": [
        1,
        0.53616940975189209,
        0.99976652860641479,
        1
      ],
      "min": [
        -0.92484968900680542,
        -0.99882751703262329,
        -0.98364394903182983,
        1
      ],
      "type": "VEC4"
    },
    {
      "bufferView": 1,
      "byteOffset": 17264,
      "componentType": 5126,
      "count": 230,
      "max": [
        0.97109997272491455,
        0.98869997262954712
      ],
      "min": [
        0.012600000016391277,
        0.018500000238418579
      ],
      "type": "VEC2"
    },
    {
      "bufferView": 0,
      "byteOffset": 26664,
      "componentType": 5125,
      "count": 594,
      "max": [
        229
      ],
      "min": [
        0
      ],
      "type": "SCALAR"
    }
  ],
  "asset": {
    "extras": {
      "author": "lucak (https://sketchfab.com/lucak)",
      "license": "CC-BY-4.0 (http://creativecommons.org/licenses/by/4.0/)",
      "source": "https://sketchfab.com/models/63d7bfb5e56a44a2a9cdc855137ba16c",
      "title": "Soul Stealer Bard fan art"
    },
    "generator": "Sketchfab-3.19.5",
    "version": "2.0"
  },
  "bufferViews": [
    {
      "buffer": 0,
      "byteLength": 29040,
      "byteOffset": 0,
      "name": "floatBufferViews",
      "target": 34963
    },
    {
      "buffer": 0,
      "byteLength": 19104,
      "byteOffset": 29040,
      "byteStride": 8,
      "name": "floatBufferViews",
      "target": 34962
    },
    {
      "buffer": 0,
      "byteLength": 57312,
      "byteOffset": 48144,
      "byteStride": 12,
      "name": "floatBufferViews",
      "target": 34962
    },
    {
      "buffer": 0,
      "byteLength": 38208,
      "byteOffset": 105456,
      "byteStride": 16,
      "name": "floatBufferViews",
      "target": 34962
    }
  ],
  "buffers": [
    {
      "byteLength": 143664,
      "uri": "scene.bin"
    }
  ],
  "extensionsUsed": [
    "KHR_materials_unlit"
  ],
  "images": [
    {
      "uri": "textures/default_baseColor.png"
    },
    {
      "uri": "textures/default2_baseColor.png"
    },
    {
      "uri": "textures/default1_baseColor.png"
    }
  ],
  "materials": [
    {
      "doubleSided": true,
      "emissiveFactor": [
        0,
        0,
        0
      ],
      "extensions": {
        "KHR_materials_unlit": {}
      },
      "name": "default",
      "pbrMetallicRoughness": {
        "baseColorFactor": [
          1,
          1,
          1,
          1
        ],
        "baseColorTexture": {
          "index": 0,
          "texCoord": 0
        },
        "metallicFactor": 0,
        "roughnessFactor": 1
      }
    },
    {
      "alphaMode": "BLEND",
      "doubleSided": true,
      "emissiveFactor": [
        0,
        0,
        0
      ],
      "extensions": {
        "KHR_materials_unlit": {}
      },
      "name": "default1",
      "pbrMetallicRoughness": {
        "baseColorFactor": [
          1,
          1,
          1,
          1
        ],
        "baseColorTexture": {
          "index": 2,
          "texCoord": 0
        },
        "metallicFactor": 0,
        "roughnessFactor": 1
      }
    },
    {
      "alphaMode": "BLEND",
      "doubleSided": true,
      "emissiveFactor": [
        0,
        0,
        0
      ],
      "extensions": {
        "KHR_materials_unlit": {}
      },
      "name": "default2",
      "pbrMetallicRoughness": {
        "baseColorFactor": [
          1,
          1,
          1,
          1
        ],
        "baseColorTexture": {
          "index": 1,
          "texCoord": 0
        },
        "metallicFactor": 0,
        "roughnessFactor": 1
      }
    }
  ],
  "meshes": [
    {
      "primitives": [
        {
          "attributes": {
            "NORMAL": 1,
            "POSITION": 0,
            "TANGENT": 2,
            "TEXCOORD_0": 3
          },
          "indices": 4,
          "material": 0,
          "mode": 4
        }
      ]
    },
    {
      "primitives": [
        {
          "attributes": {
            "NORMAL": 6,
            "POSITION": 5,
            "TANGENT": 7,
            "TEXCOORD_0": 8
          },
          "indices": 9,
          "material": 1,
          "mode": 4
        }
      ]
    },
    {
      "primitives": [
        {
          "attributes": {
            "NORMAL": 11,
            "POSITION": 10,
            "TANGENT": 12,
            "TEXCOORD_0": 13
          },
          "indices": 14,
          "material": 2,
          "mode": 4
        }
      ]
    }
  ],
  "nodes": [
    {
      "children": [
        1
      ],
      "name": "RootNode (gltf orientation matrix)",
      "rotation": [
        -0.70710678118654746,
        -0,
        -0,
        0.70710678118654757
      ]
    },
    {
      "children": [
        2
      ],
      "name": "RootNode (model correction matrix)"
    },
    {
      "children": [
        3,
        4,
        5
      ],
      "name": "ec62ff474f634ac8ad9b8b7ddefbce5e.obj.cleaner.gles"
    },
    {
      "mesh": 0,
      "name": ""
    },
    {
      "mesh": 1,
      "name": ""
    },
    {
      "mesh": 2,
      "name": ""
    }
  ],
  "samplers": [
    {
      "magFilter": 9729,
      "minFilter": 9987,
      "wrapS": 10497,
      "wrapT": 10497
    },
    {
      "magFilter": 9728,
      "minFilter": 9728,
      "wrapS": 10497,
      "wrapT": 10497
    }
  ],
  "scene": 0,
  "scenes": [
    {
      "name": "OSG_Scene",
      "nodes": [
        0
      ]
    }
  ],
  "textures": [
    {
      "sampler": 0,
      "source": 0
    },
    {
      "sampler": 1,
      "source": 1
    },
    {
      "sampler": 0,
      "source": 2
    }
  ]
}

